<?xml version="1.0" standalone="no"?>
<!DOCTYPE svg PUBLIC "-//W3C//DTD SVG 20010904//EN"
 "http://www.w3.org/TR/2001/REC-SVG-20010904/DTD/svg10.dtd">
<svg version="1.0" xmlns="http://www.w3.org/2000/svg"
 width="1024.000000pt" height="1024.000000pt" viewBox="0 0 1024.000000 1024.000000"
 preserveAspectRatio="xMidYMid meet">

<g transform="translate(0.000000,1024.000000) scale(0.100000,-0.100000)"
fill="#000000" stroke="none">
<path d="M4830 8634 c-379 -47 -680 -121 -989 -243 -206 -82 -274 -115 -456
-219 -515 -292 -962 -712 -1289 -1212 -359 -548 -540 -1125 -562 -1793 -20
-617 105 -1199 372 -1730 257 -513 642 -961 1118 -1305 279 -200 745 -424
1093 -526 447 -129 976 -175 1398 -121 481 62 856 173 1252 370 593 295 1083
742 1442 1317 239 381 413 863 481 1331 56 379 45 897 -26 1242 -116 558 -344
1045 -700 1495 -128 161 -435 471 -589 594 -440 350 -1003 622 -1517 731 -272
58 -362 67 -688 70 -168 2 -321 1 -340 -1z m685 -573 c662 -100 1256 -394
1742 -865 481 -465 773 -1017 888 -1680 33 -186 44 -392 34 -605 -48 -1004
-583 -1910 -1434 -2432 -497 -305 -1039 -459 -1620 -459 -638 0 -1228 193
-1793 587 -407 284 -710 635 -933 1083 -423 850 -430 1840 -19 2660 209 417
560 840 912 1098 498 364 1008 567 1588 631 133 15 484 5 635 -18z"/>
<path d="M4110 5040 l0 -2510 218 2 217 3 3 233 2 232 579 0 579 0 7 -113 c4
-62 6 -133 4 -157 -1 -25 -2 -80 -1 -122 l2 -78 215 0 215 0 0 2510 0 2510
-215 0 c-197 0 -215 -1 -217 -17 -2 -10 -3 -184 -3 -388 l0 -370 -582 -3 -583
-2 0 390 0 390 -220 0 -220 0 0 -2510z m1603 1128 c9 -154 9 -280 1 -396 l-7
-92 -578 0 -579 0 0 305 0 305 578 0 579 0 6 -122z m2 -1130 c3 -90 5 -228 3
-308 l-3 -145 -582 -3 -583 -2 0 310 0 310 579 0 579 0 7 -162z m-2 -1095 c9
-199 9 -416 1 -437 -6 -14 -66 -16 -585 -16 l-579 0 0 305 0 305 578 0 579 0
6 -157z"/>
</g>
</svg>
