<svg role="img" viewBox="0 0 24 24" xmlns="http://www.w3.org/2000/svg" id="Proteus--Streamline-Simple-Icons" height="24" width="24">
  <desc>
    Proteus Streamline Icon: https://streamlinehq.com
  </desc>
  <title>Proteus</title>
  <path d="M3.4051 4.799c0 -0.6655 0.5397 -1.2051 1.2052 -1.2051s1.2052 0.5396 1.2052 1.2052c0 0.0037 -0.002 0.0068 -0.0021 0.0105 0.6943 0.2851 1.4968 0.776 2.1966 1.2557 0.404 0.277 0.8184 0.5853 1.2354 0.9068 -0.1488 0.0862 -0.2953 0.1743 -0.426 0.2674l-0.0673 0.048c-0.34 -0.2577 -0.6797 -0.5123 -1.0096 -0.7385C6.79 5.8961 6.123 5.5426 5.662 5.3552c-0.1757 0.3306 -0.4955 0.5571 -0.88 0.6143 0.154 0.58 0.5529 1.366 1.1504 2.2896l0.7181 1.0453c0.1443 0.199 0.3067 0.4082 0.4636 0.6143 0.1975 0.2596 0.4063 0.525 0.6218 0.7934 0.0459 0.057 0.0926 0.1143 0.1393 0.1716 0.1894 0.2332 0.3847 0.4688 0.5868 0.7068 0.116 0.1362 0.2366 0.2737 0.3566 0.4111 0.1533 0.1763 0.3054 0.352 0.4651 0.5298 0.299 0.3319 0.6053 0.6654 0.9244 0.9997 0.2949 0.3091 0.5976 0.6089 0.9002 0.9073 -0.2669 -0.0057 -0.534 -0.0105 -0.7977 -0.0213a42.315 42.315 0 0 1 -0.4966 -0.51c-0.4947 -0.5184 -0.9558 -1.0318 -1.4002 -1.5404a44.4174 44.4174 0 0 1 -0.2897 -0.3354c-0.4261 -0.4974 -0.8328 -0.9881 -1.2026 -1.463l-0.0016 -0.002c-0.3052 -0.392 -0.5937 -0.776 -0.8567 -1.1459l-0.0006 0.0001 -0.0077 -0.0113c-0.003 -0.0044 -0.0068 -0.009 -0.0099 -0.0133l0.0008 -0.0001 -0.1281 -0.1904 -0.1413 -0.2097 -0.3963 -0.5883c-0.633 -0.9963 -1.048 -1.849 -1.202 -2.4905 -0.4506 -0.1744 -0.773 -0.6056 -0.773 -1.1178zm15.292 13.2427c-0.3277 -0.8145 -0.9133 -1.8048 -1.6373 -2.8438 -0.1986 0.0293 -0.4067 0.0528 -0.6108 0.0789 0.7763 1.1025 1.3413 2.0677 1.6562 2.7927 -0.4707 0.152 -0.8131 0.5726 -0.832 1.0893 -0.6327 -0.267 -1.4611 -0.762 -2.418 -1.468 -0.737 -0.5438 -1.5182 -1.1992 -2.3035 -1.9031a54.784 54.784 0 0 1 -0.4126 0.3664c2.0873 1.8717 4.0796 3.26 5.3385 3.6912 0.215 0.3298 0.5693 0.5608 0.9923 0.5608 0.6656 0 1.2052 -0.5395 1.2052 -1.2051 0 -0.5851 -0.4252 -1.0499 -0.978 -1.1593zm-6.1818 -2.4915a10.5432 10.5432 0 0 0 -0.2286 0.006c-0.1007 0.0037 -0.2013 0.008 -0.3021 0.008 -0.0975 0 -0.1918 -0.0059 -0.289 -0.0065 -0.1271 0.1114 -0.2496 0.2096 -0.3755 0.3171a36.746 36.746 0 0 1 -0.8212 0.684l0.0013 0.0003c-1.5544 1.251 -2.9273 2.1365 -3.842 2.5257 0 -0.0016 0.001 -0.0028 0.001 -0.0044 0 -0.5293 -0.3466 -0.9657 -0.8212 -1.1276 0.2694 -0.6066 0.6953 -1.3508 1.2896 -2.2061 0.0993 -0.1429 0.2175 -0.294 0.3234 -0.4398 -0.2083 -0.0241 -0.4229 -0.0452 -0.6245 -0.0723 -0.7207 1.0148 -1.2719 1.9393 -1.5923 2.685 -0.5565 0.1066 -0.9854 0.5732 -0.9854 1.1608 0 0.6656 0.5396 1.2052 1.2052 1.2052 0.3973 0 0.7328 -0.205 0.9523 -0.5015 1.5528 -0.4942 4.027 -2.3594 6.109 -4.2339zm-5.664 -4.6696a5.1697 5.1697 0 0 0 -0.0566 0.7578c0 0.9375 0.2618 1.8091 0.6994 2.5662 0.062 0.0074 0.119 0.0169 0.1815 0.024 0.7378 0.0831 1.5005 0.1402 2.2768 0.179 -0.1066 -0.1088 -0.2135 -0.217 -0.3192 -0.3278 -1.0172 -1.066 -1.9556 -2.1502 -2.7818 -3.1992zm8.1693 -3.3744c0.2686 0.2001 0.5185 0.424 0.7431 0.6717 0.1871 0.2063 0.3567 0.4285 0.5087 0.6631 0.1858 0.2867 0.3327 0.5988 0.4595 0.9209 -0.6217 0.835 -1.3012 1.6632 -1.999 2.4467 -0.121 0.1357 -0.2404 0.2732 -0.3622 0.4057a30.224 30.224 0 0 1 -0.7613 0.8 40.0852 40.0852 0 0 1 -0.8573 0.8379l-0.2022 0.1924c-0.189 0.003 -0.3759 0.017 -0.5653 0.017 -0.1727 0 -0.3388 -0.0114 -0.5104 -0.0135l-0.1904 -0.1877c-0.3007 -0.2967 -0.6017 -0.5946 -0.8949 -0.9019a45.099 45.099 0 0 1 -0.7263 -0.783 43.538 43.538 0 0 1 -0.3657 -0.4083c-0.7586 -0.8544 -1.4649 -1.7107 -2.0874 -2.5373 0.1081 -0.2542 0.23 -0.5012 0.3758 -0.7326a5.1611 5.1611 0 0 1 0.5092 -0.6784c0.2586 -0.2911 0.5522 -0.5493 0.87 -0.7758a5.1451 5.1451 0 0 1 0.493 -0.3094c0.7384 -0.4093 1.5851 -0.6474 2.4894 -0.6474 0.9462 0 1.8328 0.2552 2.5948 0.7003a5.166 5.166 0 0 1 0.479 0.3196m-0.9201 6.8916a33.7491 33.7491 0 0 0 2.1308 -0.1939c0.0635 -0.0079 0.1213 -0.0194 0.1843 -0.0276 0.4277 -0.7507 0.6833 -1.612 0.6833 -2.5379 0 -0.1966 -0.021 -0.3877 -0.0425 -0.5786 -0.8503 1.0858 -1.7729 2.1483 -2.7046 3.0896 -0.0805 0.0812 -0.167 0.1652 -0.2513 0.2484zm-1.4447 1.1489c0.3586 0.3226 0.7121 0.6338 1.0523 0.918 0.6598 -0.2425 1.2618 -0.604 1.7643 -1.0768 -0.9283 0.0911 -1.8717 0.1395 -2.8166 0.1588zm-1.2003 1.1964c0.1639 0.0159 0.3231 0.0475 0.4913 0.0475 0.1633 0 0.3177 -0.0316 0.4771 -0.0465 -0.1558 -0.1355 -0.3154 -0.2854 -0.4727 -0.4263 -0.153 0.1332 -0.318 0.275 -0.4957 0.4253zm-3.0121 -1.335c0.5032 0.468 1.1047 0.825 1.763 1.0638 0.352 -0.2805 0.7146 -0.5802 1.09 -0.9038l-0.0005 -0.0099 0.0067 -0.0094c-0.9745 -0.017 -1.9343 -0.0598 -2.8592 -0.1407zM15.17 7.3057l0.0569 0.0423c1.2568 -0.9717 2.3588 -1.6635 3.1438 -1.9497 0.1728 0.3392 0.4982 0.5716 0.8884 0.6309 -0.148 0.4568 -0.4793 1.1684 -1.1632 2.2364l-0.6367 0.9297c-0.1963 0.2796 -0.409 0.5625 -0.6213 0.8451 -0.4366 0.5809 -0.9059 1.1628 -1.391 1.7327 -0.0595 0.0695 -0.12 0.1378 -0.18 0.207 -0.48 0.555 -0.9742 1.0994 -1.4798 1.6102 -0.287 0.29 -0.575 0.5691 -0.8627 0.843 0.2702 -0.0072 0.5407 -0.0111 0.8094 -0.0244a36.253 36.253 0 0 0 0.4404 -0.4354c0.46 -0.4647 0.9096 -0.9581 1.3514 -1.4604a37.509 37.509 0 0 0 0.2472 -0.2859c0.4272 -0.496 0.8412 -0.9985 1.2334 -1.5061l0.0014 -0.0017c0.3653 -0.4731 0.718 -0.946 1.0405 -1.4123l0.6296 -0.9325c0.501 -0.795 0.9901 -1.6879 1.19 -2.3977 0.4501 -0.1748 0.7715 -0.6058 0.7715 -1.1176 0 -0.6656 -0.5395 -1.2052 -1.2051 -1.2052 -0.662 0 -1.197 0.5342 -1.203 1.1947 -0.9004 0.3423 -2.1135 1.107 -3.4811 2.1767 0.1372 0.0839 0.2742 0.1716 0.42 0.2802zm0.941 0.9155c0.1281 0.1564 0.2589 0.3104 0.3712 0.4838l0.122 0.188c0.233 0.0324 0.454 0.075 0.6828 0.1113l0.3803 -0.5553c-0.5083 -0.0847 -1.0258 -0.164 -1.5563 -0.2278zm-8.3719 0.056c-0.453 0.0637 -0.8929 0.1472 -1.3344 0.2278l0.3714 0.5407c0.1601 -0.028 0.3143 -0.0627 0.476 -0.0885l0.1216 -0.1932c0.1083 -0.1719 0.2387 -0.328 0.3654 -0.4867zm16.239 3.1232c-0.2514 -1.2987 -2.5312 -2.1148 -4.3994 -2.5707 -0.2506 -0.0612 -0.5305 -0.1094 -0.7955 -0.1646l-0.3626 0.5371c0.4351 0.0867 0.864 0.1775 1.2647 0.2824 2.2145 0.5793 3.5636 1.3194 3.7012 2.0304 0.039 0.2012 -0.031 0.407 -0.214 0.6288 -0.5461 0.6619 -1.9944 1.3135 -3.9736 1.7878 -0.8763 0.21 -1.8361 0.3783 -2.8395 0.5058 -0.0321 0.0051 -0.064 0.0104 -0.0973 0.0146a34.0673 34.0673 0 0 1 -2.1084 0.1935c-0.227 0.0139 -0.4584 0.0114 -0.687 0.021 -0.2716 0.0113 -0.191 0.0197 -0.464 0.0248h-0.3523c-0.2264 0.0247 -0.5233 0.0203 -0.7462 0.0203 -1.5226 0 -2.9098 -0.0829 -4.2566 -0.2347 -3.2265 -0.3637 -5.76 -1.1231 -6.695 -2.088 -0.2397 -0.247 -0.3573 -0.4964 -0.3496 -0.741 0.0116 -0.3722 0.7711 -1.2159 3.5442 -2.0175 0.4803 -0.1388 0.9839 -0.2633 1.5028 -0.375l-0.3534 -0.5246c-0.4477 0.1006 -0.8982 0.1997 -1.3167 0.3207C2.5106 9.4763 0.0398 10.376 0.0007 11.629c-0.013 0.4138 0.1617 0.8106 0.5191 1.1795 1.0945 1.1291 3.9797 1.979 7.6472 2.3296 1.2005 0.1148 2.526 0.175 3.8589 0.175 0.0139 0 -0.014 0 0 0 0.2593 -0.0014 0.5138 -0.0146 0.7716 -0.0206 1.0077 -0.023 2.0027 -0.0758 2.951 -0.1772 0.184 -0.0197 0.3583 -0.0469 0.539 -0.0693 0.1413 -0.0174 0.2813 -0.0358 0.4214 -0.0542 3.3329 -0.4575 6.0209 -1.3645 6.9284 -2.4645 0.3004 -0.3642 0.415 -0.7433 0.3408 -1.127z" fill="#000000" stroke-width="1"></path>
</svg>